<svg width="16" height="16" viewBox="0 0 16 16" xmlns="http://www.w3.org/2000/svg">
  <path d="m4.95 2.5c-1.77 0-2.95 1.9-2.95 5.5s1.18 5.5 2.95 5.5 2.95-1.9 2.95-5.5-1.18-5.5-2.95-5.5zm0 1.55c0.863 0 1.4 1.33 1.4 3.95s-0.537 3.95-1.4 3.95-1.4-1.33-1.4-3.95 0.537-3.95 1.4-3.95z" clip-rule="evenodd" fill="#000" fill-rule="evenodd"/>
  <path d="m4.22 7.35h1.46c0.276 0 0.5 0.224 0.5 0.5s-0.224 0.5-0.5 0.5h-1.46c-0.276 0-0.5-0.224-0.5-0.5s0.224-0.5 0.5-0.5z" fill="#000"/>
  <path d="m8 7.4h1.6l1.35 1.92 1.34-1.92h1.58l-2.08 2.96 2.24 3.14h-1.65l-1.45-2.04-1.44 2.04h-1.59l2.21-3.12z" fill="#000"/>
</svg>
