<svg width="64" height="64" xmlns="http://www.w3.org/2000/svg"><path d="M10 46 L10 52 Q10 58 32 58 Q54 58 54 52 L54 46" fill="#1464A8"/><ellipse cx="32" cy="46" rx="22" ry="6" fill="#1877C8"/><ellipse cx="32" cy="46" rx="22" ry="6" fill="none" stroke="#0D3A8F" stroke-width="1"/><path d="M10 32 L10 38 Q10 44 32 44 Q54 44 54 38 L54 32" fill="#1464A8"/><ellipse cx="32" cy="32" rx="22" ry="6" fill="#1877C8"/><ellipse cx="32" cy="32" rx="22" ry="6" fill="none" stroke="#0D3A8F" stroke-width="1"/><path d="M10 18 L10 24 Q10 30 32 30 Q54 30 54 24 L54 18" fill="#1464A8"/><ellipse cx="32" cy="18" rx="22" ry="6" fill="#42A5F5"/><ellipse cx="32" cy="18" rx="22" ry="6" fill="none" stroke="#1464A8" stroke-width="1"/><ellipse cx="28" cy="16" rx="13" ry="3.5" fill="#fff" opacity="0.25"/></svg>
