<svg width="64" height="64" xmlns="http://www.w3.org/2000/svg">
  <rect x="10" y="8" width="44" height="32" rx="3" fill="#EEF4FC" stroke="#C5D8EE" stroke-width="1.5"/>
  <rect x="14" y="12" width="36" height="24" rx="2" fill="#1E2D3D"/>
  <rect x="16" y="14" width="32" height="20" fill="#1877C8" rx="1"/>
  <rect x="16" y="14" width="32" height="7" fill="#1464A8" rx="1"/>
  <line x1="18" y1="25" x2="36" y2="25" stroke="#42A5F5" stroke-width="1.5" stroke-linecap="round"/>
  <line x1="18" y1="29" x2="28" y2="29" stroke="#42A5F5" stroke-width="1.5" stroke-linecap="round" opacity="0.6"/>
  <rect x="24" y="15" width="10" height="5" fill="#0D3A8F" rx="1"/>
  <line x1="36" y1="17" x2="45" y2="17" stroke="#fff" stroke-width="1.5" opacity="0.4"/>
  <line x1="36" y1="20" x2="42" y2="20" stroke="#fff" stroke-width="1.5" opacity="0.25"/>
  <rect x="28" y="40" width="8" height="6" fill="#C5D8EE" stroke="#A5C0DC" stroke-width="1" rx="1"/>
  <rect x="20" y="46" width="24" height="4" fill="#C5D8EE" stroke="#A5C0DC" stroke-width="1" rx="2"/>
  <rect x="36" y="50" width="8" height="4" fill="#A5C0DC" rx="2"/>
  <line x1="24" y1="50" x2="36" y2="50" stroke="#A5C0DC" stroke-width="1"/>
</svg>