<svg width="16" height="16" viewBox="0 0 16 16" xmlns="http://www.w3.org/2000/svg"><path d="m1.85 5.23c0.364-0.151 0.754-0.228 1.15-0.228h0.5c0.276 0 0.5 0.224 0.5 0.5s-0.224 0.5-0.5 0.5h-0.5c-0.263 0-0.523 0.0517-0.765 0.152s-0.463 0.248-0.649 0.434c-0.375 0.375-0.586 0.884-0.586 1.41v5c0 0.53 0.211 1.04 0.586 1.41 0.186 0.186 0.406 0.333 0.649 0.434 0.243 0.1 0.503 0.152 0.765 0.152h9c0.53 0 1.04-0.211 1.41-0.586s0.586-0.884 0.586-1.41v-5c0-0.53-0.211-1.04-0.586-1.41-0.375-0.375-0.884-0.586-1.41-0.586h-0.5c-0.276 0-0.5-0.224-0.5-0.5s0.224-0.5 0.5-0.5h0.5c0.796 0 1.56 0.316 2.12 0.879s0.879 1.33 0.879 2.12v5c0 0.796-0.316 1.56-0.879 2.12s-1.33 0.879-2.12 0.879h-9c-0.394 0-0.784-0.0776-1.15-0.228-0.364-0.151-0.695-0.372-0.973-0.65-0.563-0.563-0.879-1.33-0.879-2.12v-5c0-0.796 0.316-1.56 0.879-2.12 0.279-0.279 0.609-0.5 0.973-0.65z" clip-rule="evenodd" fill="#000" fill-rule="evenodd"/><path transform="translate(0,12) scale(1,-1)" d="m7.85 0.146c-0.195-0.195-0.512-0.195-0.707 0l-3 3c-0.195 0.195-0.195 0.512 0 0.707 0.195 0.195 0.512 0.195 0.707 0l2.15-2.15v7.79c0 0.276 0.224 0.5 0.5 0.5s0.5-0.224 0.5-0.5v-7.79l2.15 2.15c0.195 0.195 0.512 0.195 0.707 0 0.195-0.195 0.195-0.512 0-0.707l-3-3z" fill="#000"/></svg>
