<svg width="16" height="16" viewBox="0 0 16 16" xmlns="http://www.w3.org/2000/svg">
  <path d="m2 5.2c0-1.12 0-1.68 0.218-2.11 0.192-0.376 0.498-0.682 0.874-0.874 0.428-0.218 0.988-0.218 2.11-0.218h5.6c1.12 0 1.68 0 2.11 0.218 0.376 0.192 0.682 0.498 0.874 0.874 0.218 0.428 0.218 0.988 0.218 2.11v5.6c0 1.12 0 1.68-0.218 2.11-0.192 0.376-0.498 0.682-0.874 0.874-0.428 0.218-0.988 0.218-2.11 0.218h-5.6c-1.12 0-1.68 0-2.11-0.218-0.376-0.192-0.682-0.498-0.874-0.874-0.218-0.428-0.218-0.988-0.218-2.11v-5.6zm3.2-2.2h5.6c0.577 0 0.949 0.00078 1.23 0.0239 0.272 0.0222 0.372 0.0599 0.422 0.0851 0.188 0.0959 0.341 0.249 0.437 0.437 0.0252 0.0494 0.0629 0.15 0.0851 0.422 0.0231 0.283 0.0239 0.656 0.0239 1.23v5.6c0 0.577-0.0008 0.949-0.0239 1.23-0.0222 0.272-0.0599 0.372-0.0851 0.422-0.0959 0.188-0.249 0.341-0.437 0.437-0.0495 0.0252-0.15 0.0629-0.422 0.0851-0.283 0.0231-0.656 0.0239-1.23 0.0239h-5.6c-0.577 0-0.949-0.0008-1.23-0.0239-0.272-0.0222-0.372-0.0599-0.422-0.0851-0.188-0.0959-0.341-0.249-0.437-0.437-0.0252-0.0495-0.0629-0.15-0.0851-0.422-0.0232-0.283-0.0239-0.656-0.0239-1.23v-5.6c0-0.577 0.00078-0.949 0.0239-1.23 0.0222-0.272 0.0599-0.372 0.0851-0.422 0.0959-0.188 0.249-0.341 0.437-0.437 0.0494-0.0252 0.15-0.0629 0.422-0.0851 0.283-0.0232 0.656-0.0239 1.23-0.0239z" fill="#000" fill-rule="evenodd"/>
  <path d="m0 6.4c0-2.24 0-3.36 0.436-4.22 0.383-0.753 0.995-1.36 1.75-1.75 0.856-0.436 1.98-0.436 4.22-0.436h3.2c2.24 0 3.36 0 4.22 0.436 0.753 0.383 1.36 0.995 1.75 1.75 0.436 0.856 0.436 1.98 0.436 4.22v3.2c0 2.24 0 3.36-0.436 4.22-0.384 0.753-0.995 1.36-1.75 1.75-0.856 0.436-1.98 0.436-4.22 0.436h-3.2c-2.24 0-3.36 0-4.22-0.436-0.753-0.384-1.36-0.995-1.75-1.75-0.436-0.856-0.436-1.98-0.436-4.22v-3.2zm6.4-5.4h3.2c1.14 0 1.93 0.00078 2.55 0.0512 0.605 0.0494 0.953 0.142 1.22 0.276 0.564 0.288 1.02 0.747 1.31 1.31 0.134 0.263 0.226 0.611 0.276 1.22 0.0504 0.617 0.0512 1.41 0.0512 2.55v3.2c0 1.14-0.0008 1.93-0.0512 2.55-0.0494 0.605-0.142 0.953-0.276 1.22-0.288 0.564-0.746 1.02-1.31 1.31-0.263 0.134-0.611 0.226-1.22 0.276-0.617 0.0504-1.41 0.0512-2.55 0.0512h-3.2c-1.14 0-1.93-0.0008-2.55-0.0512-0.605-0.0494-0.953-0.142-1.22-0.276-0.564-0.288-1.02-0.746-1.31-1.31-0.134-0.263-0.226-0.611-0.276-1.22-0.0504-0.617-0.0512-1.41-0.0512-2.55v-3.2c0-1.14 0.00078-1.93 0.0512-2.55 0.0494-0.605 0.142-0.953 0.276-1.22 0.288-0.564 0.747-1.02 1.31-1.31 0.263-0.134 0.611-0.226 1.22-0.276 0.617-0.0504 1.41-0.0512 2.55-0.0512z" fill="#000" fill-rule="evenodd"/>
  <path d="M4 3h8a1 1 0 0 1 1 1v8a1 1 0 0 1-1 1H4a1 1 0 0 1-1-1V4a1 1 0 0 1 1-1zM4.75 5.3H5.8v2.2h1.05V5.3H7.9v5.4H6.85V8.45h-2.1zM8.95 6.8h1.05l0.85 1.2 0.85-1.2h1.05l-1.35 1.9 1.42 2h-1.05l-0.92-1.3-0.92 1.3H8.88l1.42-2z" fill="#000" fill-rule="evenodd"/>
</svg>
