<svg width="16" height="16" viewBox="0 0 16 16" xmlns="http://www.w3.org/2000/svg">
  <path d="m0 3.2c0-1.12 0-1.68 0.218-2.11 0.192-0.376 0.498-0.682 0.874-0.874 0.428-0.218 0.988-0.218 2.11-0.218h0.6c1.12 0 1.68 0 2.11 0.218 0.376 0.192 0.682 0.498 0.874 0.874 0.218 0.428 0.218 0.988 0.218 2.11v0.6c0 1.12 0 1.68-0.218 2.11-0.192 0.376-0.498 0.682-0.874 0.874-0.428 0.218-0.988 0.218-2.11 0.218h-0.6c-1.12 0-1.68 0-2.11-0.218-0.376-0.192-0.682-0.498-0.874-0.874-0.218-0.428-0.218-0.988-0.218-2.11v-0.6zm3.2-2.2h0.6c0.577 0 0.949 7.8e-4 1.23 0.0239 0.272 0.0222 0.372 0.0599 0.422 0.0851 0.188 0.0959 0.341 0.249 0.437 0.437 0.0252 0.0494 0.0629 0.15 0.0851 0.422 0.0232 0.283 0.0239 0.656 0.0239 1.23v0.6c0 0.577-7.8e-4 0.949-0.0239 1.23-0.0222 0.272-0.0599 0.372-0.0851 0.422-0.0959 0.188-0.249 0.341-0.437 0.437-0.0494 0.0252-0.15 0.0629-0.422 0.0851-0.283 0.0232-0.656 0.0239-1.23 0.0239h-0.6c-0.577 0-0.949-7.8e-4 -1.23-0.0239-0.272-0.0222-0.372-0.0599-0.422-0.0851-0.188-0.0959-0.341-0.249-0.437-0.437-0.0252-0.0494-0.0629-0.15-0.0851-0.422-0.0232-0.283-0.0239-0.656-0.0239-1.23v-0.6c0-0.577 7.8e-4 -0.949 0.0239-1.23 0.0222-0.272 0.0599-0.372 0.0851-0.422 0.0959-0.188 0.249-0.341 0.437-0.437 0.0494-0.0252 0.15-0.0629 0.422-0.0851 0.283-0.0232 0.656-0.0239 1.23-0.0239z" clip-rule="evenodd" fill="#000" fill-rule="evenodd"/>
  <path d="m7.5 7c-0.276 0-0.5 0.224-0.5 0.5s0.224 0.5 0.5 0.5h2.98c1.17 0 1.57 0.004 1.85 0.027 0.265 0.022 0.349 0.058 0.394 0.081 0.188 0.096 0.341 0.249 0.437 0.437 0.023 0.045 0.059 0.129 0.081 0.394 0.023 0.28 0.027 0.675 0.027 1.85v2.71c0 0.276 0.224 0.5 0.5 0.5s0.5-0.224 0.5-0.5v-2.71c0-1.12 0-1.68-0.218-2.11-0.192-0.376-0.498-0.682-0.874-0.874-0.428-0.218-0.988-0.218-2.11-0.218h-3.57z" fill="#000"/>
  <path d="m9 12.2c0-1.12 0-1.68 0.218-2.11 0.192-0.376 0.498-0.682 0.874-0.874 0.428-0.218 0.988-0.218 2.11-0.218h0.6c1.12 0 1.68 0 2.11 0.218 0.376 0.192 0.682 0.498 0.874 0.874 0.218 0.428 0.218 0.988 0.218 2.11v0.6c0 1.12 0 1.68-0.218 2.11-0.192 0.376-0.498 0.682-0.874 0.874-0.428 0.218-0.988 0.218-2.11 0.218h-0.6c-1.12 0-1.68 0-2.11-0.218-0.376-0.192-0.682-0.498-0.874-0.874-0.218-0.428-0.218-0.988-0.218-2.11v-0.6zm3.8-2.2c0.577 0 0.949 8e-4 1.23 0.0239 0.272 0.0222 0.372 0.0599 0.422 0.0851 0.188 0.0959 0.341 0.249 0.437 0.437 0.0252 0.0495 0.0629 0.15 0.0851 0.422 0.0231 0.283 0.0239 0.656 0.0239 1.23v0.6c0 0.577-8e-4 0.949-0.0239 1.23-0.0222 0.272-0.0599 0.372-0.0851 0.422-0.0959 0.188-0.249 0.341-0.437 0.437-0.0495 0.0252-0.15 0.0629-0.422 0.0851-0.283 0.0231-0.656 0.0239-1.23 0.0239h-0.6c-0.577 0-0.949-8e-4 -1.23-0.0239-0.272-0.0222-0.372-0.0599-0.422-0.0851-0.188-0.0959-0.341-0.249-0.437-0.437-0.0252-0.0495-0.0629-0.15-0.0851-0.422-0.0231-0.283-0.0239-0.656-0.0239-1.23v-0.6c0-0.577 8e-4 -0.949 0.0239-1.23 0.0222-0.272 0.0599-0.372 0.0851-0.422 0.0959-0.188 0.249-0.341 0.437-0.437 0.0495-0.0252 0.15-0.0629 0.422-0.0851 0.283-0.0231 0.656-0.0239 1.23-0.0239h0.6z" clip-rule="evenodd" fill="#000" fill-rule="evenodd"/>
  <path d="m8 2.5c0-0.276 0.224-0.5 0.5-0.5h2c1.38 0 2.5 1.12 2.5 2.5v1.79l1.15-1.15c0.195-0.195 0.512-0.195 0.707 0 0.195 0.195 0.195 0.512 0 0.707l-2 2c-0.195 0.195-0.512 0.195-0.707 0l-2-2c-0.195-0.195-0.195-0.512 0-0.707 0.195-0.195 0.512-0.195 0.707 0l1.15 1.15v-1.79c0-0.828-0.672-1.5-1.5-1.5h-2c-0.276 0-0.5-0.224-0.5-0.5z" fill="#000"/>
  <path d="m3.31 8.04c0.0581-0.0241 0.122-0.0375 0.188-0.0379l3e-3 -1e-5 3e-3 1e-5c0.127 7.6e-4 0.254 0.0496 0.351 0.146l2 2c0.195 0.195 0.195 0.512 0 0.707-0.195 0.195-0.512 0.195-0.707 0l-1.15-1.15v1.79c0 0.828 0.672 1.5 1.5 1.5h2c0.276 0 0.5 0.224 0.5 0.5s-0.224 0.5-0.5 0.5h-2c-1.38 0-2.5-1.12-2.5-2.5v-1.79l-1.15 1.15c-0.195 0.195-0.512 0.195-0.707 0-0.195-0.195-0.195-0.512 0-0.707l2-2c0.0479-0.0479 0.103-0.0841 0.162-0.109z" fill="#000"/>
</svg>
