<?xml version="1.0" encoding="utf-8"?>
<!-- Created with: Axialis IconVectors - www.axialis.com -->
<svg xmlns="http://www.w3.org/2000/svg" version="1.1" xmlns:xlink="http://www.w3.org/1999/xlink" width="16" height="16" viewBox="0 0 16 16">
  <path fill="#000" d="M8,2.5C8,2.22,8.22,2,8.5,2L10.5,2C11.88,2,13,3.12,13,4.5L13,6.29L14.15,5.14C14.34,4.94,14.66,4.94,14.86,5.14C15.05,5.34,15.05,5.65,14.86,5.85L12.86,7.85C12.66,8.04,12.34,8.04,12.15,7.85L10.15,5.85C9.95,5.65,9.95,5.34,10.15,5.14C10.34,4.95,10.66,4.95,10.86,5.14L12.01,6.29L12.01,4.5C12.01,3.67,11.33,3,10.51,3L8.51,3C8.23,3,8.01,2.78,8.01,2.5z"/>
  <path fill="#000" fill-rule="evenodd" d="m0 3.2c0-1.12 0-1.68 0.218-2.11 0.192-0.376 0.498-0.682 0.874-0.874 0.428-0.218 0.988-0.218 2.11-0.218h0.6c1.12 0 1.68 0 2.11 0.218 0.376 0.192 0.682 0.498 0.874 0.874 0.218 0.428 0.218 0.988 0.218 2.11v0.6c0 1.12 0 1.68-0.218 2.11-0.192 0.376-0.498 0.682-0.874 0.874-0.428 0.218-0.988 0.218-2.11 0.218h-0.6c-1.12 0-1.68 0-2.11-0.218-0.376-0.192-0.682-0.498-0.874-0.874-0.218-0.428-0.218-0.988-0.218-2.11zm3.2-2.2h0.6c0.577 0 0.949 0.00078 1.23 0.0239 0.272 0.0222 0.372 0.0599 0.422 0.0851 0.188 0.0959 0.341 0.249 0.437 0.437 0.0252 0.0494 0.0629 0.15 0.0851 0.422 0.0232 0.283 0.0239 0.656 0.0239 1.23v0.6c0 0.577-0.00078 0.949-0.0239 1.23-0.0222 0.272-0.0599 0.372-0.0851 0.422-0.0959 0.188-0.249 0.341-0.437 0.437-0.0494 0.0252-0.15 0.0629-0.422 0.0851-0.283 0.0232-0.656 0.0239-1.23 0.0239h-0.6c-0.577 0-0.949-0.00078-1.23-0.0239-0.272-0.0222-0.372-0.0599-0.422-0.0851-0.188-0.0959-0.341-0.249-0.437-0.437-0.0252-0.0494-0.0629-0.15-0.0851-0.422-0.0232-0.283-0.0239-0.656-0.0239-1.23v-0.6c0-0.577 0.00078-0.949 0.0239-1.23 0.0222-0.272 0.0599-0.372 0.0851-0.422 0.0959-0.188 0.249-0.341 0.437-0.437 0.0494-0.0252 0.15-0.0629 0.422-0.0851 0.283-0.0232 0.656-0.0239 1.23-0.0239z"/>
  <path fill="#000" fill-rule="evenodd" d="m9 12.2c0-1.12 0-1.68 0.22-2.11 0.19-0.38 0.5-0.68 0.87-0.87 0.43-0.22 0.99-0.22 2.11-0.22h0.6c1.12 0 1.68 0 2.11 0.22 0.38 0.19 0.68 0.49 0.88 0.87 0.21 0.43 0.21 0.99 0.21 2.11v0.6c0 1.12 0 1.68-0.21 2.11-0.2 0.38-0.5 0.68-0.88 0.87-0.43 0.22-0.99 0.22-2.11 0.22h-0.6c-1.12 0-1.68 0-2.11-0.22-0.37-0.19-0.68-0.49-0.87-0.87-0.22-0.43-0.22-0.99-0.22-2.11zm3.2-2.2h0.6c0.58 0 0.95 0 1.23 0.02 0.27 0.03 0.37 0.06 0.42 0.09 0.19 0.09 0.34 0.25 0.44 0.44 0.02 0.05 0.06 0.15 0.08 0.42 0.03 0.28 0.03 0.65 0.03 1.23v0.6c0 0.58 0 0.95-0.03 1.23-0.02 0.27-0.06 0.37-0.08 0.42-0.1 0.19-0.25 0.34-0.44 0.44-0.05 0.02-0.15 0.06-0.42 0.08-0.28 0.03-0.66 0.03-1.23 0.03h-0.6c-0.58 0-0.95 0-1.23-0.03-0.27-0.02-0.37-0.06-0.42-0.08-0.19-0.1-0.34-0.25-0.44-0.44-0.02-0.05-0.06-0.15-0.08-0.42-0.03-0.28-0.03-0.66-0.03-1.23v-0.6c0-0.58 0-0.95 0.03-1.23 0.02-0.27 0.06-0.37 0.08-0.42 0.1-0.19 0.25-0.34 0.44-0.44 0.05-0.03 0.15-0.06 0.42-0.09 0.28-0.02 0.66-0.02 1.23-0.02z"/>
  <path fill="none" stroke="#000" stroke-linecap="butt" stroke-linejoin="round" d="M4,9.5L3,9.5C2.17,9.5,1.5,10.17,1.5,11L1.5,14C1.5,14.83,2.17,15.5,3,15.5L4,15.5"/>
  <path fill="none" stroke="#000" stroke-linecap="butt" stroke-linejoin="round" d="M8,9.5L7,9.5C6.17,9.5,5.5,10.17,5.5,11L5.5,14C5.5,14.83,6.17,15.5,7,15.5L8,15.5"/>
</svg>
