<svg width="16" height="16" version="1.1" viewBox="0 0 16 16" xmlns="http://www.w3.org/2000/svg">
 <g>
  <path d="m8 2.5c0-0.276 0.224-0.5 0.5-0.5h2c1.38 0 2.5 1.12 2.5 2.5v1.79l1.15-1.15c0.195-0.195 0.512-0.195 0.707 0s0.195 0.512 0 0.707l-2 2c-0.195 0.195-0.512 0.195-0.707 0l-2-2c-0.195-0.195-0.195-0.512 0-0.707s0.512-0.195 0.707 0l1.15 1.15v-1.79c0-0.828-0.672-1.5-1.5-1.5h-2c-0.276 0-0.5-0.224-0.5-0.5z" stroke-width=".53669"/>
  <path d="m3.31 8.04c0.0581-0.0241 0.122-0.0375 0.188-0.0379l3e-3 -1e-5 3e-3 1e-5c0.127 7.6e-4 0.254 0.0496 0.351 0.146l2 2c0.195 0.195 0.195 0.512 0 0.707s-0.512 0.195-0.707 0l-1.15-1.15v1.79c0 0.828 0.672 1.5 1.5 1.5h2c0.276 0 0.5 0.224 0.5 0.5s-0.224 0.5-0.5 0.5h-2c-1.38 0-2.5-1.12-2.5-2.5v-1.79l-1.15 1.15c-0.195 0.195-0.512 0.195-0.707 0s-0.195-0.512 0-0.707l2-2c0.0479-0.0479 0.103-0.0841 0.162-0.109z" stroke-width=".53669"/>
  <g stroke-width=".53531">
   <path d="m9.2597 9.6342c-0.14722 0.28325-0.14722 0.6512-0.14722 1.3924v1.0589c0 0.7412 0 1.1118 0.14722 1.3924 0.1299 0.24883 0.33666 0.45161 0.58997 0.57708 0.28957 0.14401 0.66575 0.14401 1.4235 0.14401h1.0825c0.75776 0 1.1366 0 1.4235-0.14401 0.25439-0.12706 0.4617-0.32931 0.58997-0.57708 0.14722-0.28325 0.14722-0.6512 0.14722-1.3924v-1.0589c0-0.74121 0-1.1118-0.14722-1.3924-0.1299-0.24883-0.33666-0.45161-0.58997-0.57708-0.28957-0.14401-0.66575-0.14401-1.4235-0.14401h-1.0825c-0.75776 0-1.1366 0-1.4235 0.14401-0.25439 0.12706-0.46169 0.32931-0.58997 0.57708zm3.1014-0.19324h-1.0825c-0.38808 0-0.6441 4.13e-4 -0.84436 0.016254-0.19215 0.015354-0.28037 0.042513-0.33558 0.070414-0.15264 0.076238-0.27712 0.19748-0.35507 0.34731-0.028364 0.054531-0.056295 0.1403-0.071986 0.32825-0.016237 0.1943-0.016614 0.44684-0.016614 0.82592v1.0589c0 0.3796 4.222e-4 0.63002 0.016614 0.82592 0.015699 0.18795 0.043461 0.27425 0.071986 0.32825 0.077941 0.1493 0.20189 0.27107 0.35507 0.34731 0.05575 0.02774 0.14343 0.05506 0.33558 0.07041 0.19864 0.01588 0.45682 0.01625 0.84436 0.01625h1.0825c0.38808 0 0.6441-4.13e-4 0.84436-0.01625 0.19215-0.01536 0.28037-0.04251 0.33558-0.07041 0.15264-0.07624 0.27712-0.19748 0.35507-0.34731 0.02836-0.05453 0.0563-0.1403 0.07199-0.32825 0.01624-0.1943 0.01661-0.44684 0.01661-0.82592v-1.0589c0-0.3796-4.22e-4 -0.63002-0.01661-0.82592-0.0157-0.18795-0.04346-0.27425-0.07199-0.32825-0.07794-0.1493-0.20189-0.27107-0.35507-0.34731-0.05575-0.027742-0.14343-0.055061-0.33558-0.070414-0.19864-0.015883-0.45682-0.016254-0.84436-0.016254z" clip-rule="evenodd" fill-rule="evenodd"/>
   <path d="m1.2602 1.8219c-0.14722 0.28325-0.14722 0.6512-0.14722 1.3924v1.0589c0 0.74121 0 1.1118 0.14722 1.3924 0.1299 0.24883 0.33666 0.45161 0.58997 0.57708 0.28957 0.14401 0.66575 0.14401 1.4235 0.14401h1.0825c0.75776 0 1.1366 0 1.4235-0.14401 0.25439-0.12706 0.4617-0.32931 0.58997-0.57708 0.14722-0.28325 0.14722-0.6512 0.14722-1.3924v-1.0589c0-0.74121 0-1.1118-0.14722-1.3924-0.1299-0.24883-0.33666-0.45161-0.58997-0.57708-0.28957-0.14401-0.66575-0.14401-1.4235-0.14401h-1.0825c-0.75776 0-1.1366 0-1.4235 0.14401-0.25439 0.12706-0.46169 0.32931-0.58997 0.57708zm3.1014-0.19324h-1.0825c-0.38808 0-0.6441 4.13e-4 -0.84436 0.016254-0.19215 0.015354-0.28037 0.042513-0.33558 0.070414-0.15264 0.076238-0.27712 0.19748-0.35507 0.34731-0.02836 0.054531-0.0563 0.1403-0.07199 0.32825-0.01624 0.1943-0.01661 0.44684-0.01661 0.82592v1.0589c0 0.3796 4.22e-4 0.63003 0.01661 0.82592 0.0157 0.18795 0.04346 0.27425 0.07199 0.32825 0.07794 0.1493 0.20189 0.27107 0.35507 0.34731 0.05575 0.02774 0.14343 0.05506 0.33558 0.07041 0.19864 0.01588 0.45682 0.01625 0.84436 0.01625h1.0825c0.38808 0 0.6441-4.13e-4 0.84436-0.01625 0.19215-0.01536 0.28037-0.04251 0.33558-0.07041 0.15264-0.07624 0.27712-0.19748 0.35507-0.34731 0.02836-0.05453 0.0563-0.1403 0.07199-0.32825 0.01624-0.1943 0.01661-0.44684 0.01661-0.82592v-1.0589c0-0.3796-4.22e-4 -0.63002-0.01661-0.82592-0.0157-0.18795-0.04346-0.27425-0.07199-0.32825-0.07794-0.1493-0.20189-0.27107-0.35507-0.34731-0.05575-0.027742-0.14343-0.055061-0.33558-0.070414-0.19864-0.015883-0.45682-0.016254-0.84436-0.016254z" clip-rule="evenodd" fill-rule="evenodd"/>
   <path d="m10.306 14.536c0.12341 0.16095 0.28308 0.29278 0.46819 0.38543 0.28957 0.144 0.66575 0.144 1.4235 0.144h1.0825c0.75776 0 1.1366 0 1.4289-0.144 0.25439-0.12706 0.4617-0.32931 0.58997-0.57708 0.14722-0.28325 0.14722-0.6512 0.14722-1.3977v-1.0589c0-0.74121 0-1.1118-0.14722-1.3924-0.09418-0.18107-0.22949-0.33725-0.39404-0.45796v2.9119c0 0.3796-4.33e-4 0.63002-0.01661 0.82592-0.01575 0.18795-0.04352 0.27425-0.07199 0.32825-0.07794 0.1493-0.20189 0.27107-0.35507 0.34731-0.05575 0.02774-0.14343 0.05506-0.33558 0.07041-0.19864 0.01583-0.45682 0.01625-0.84436 0.01625h-2.9769z"/>
  </g>
 </g>
</svg>
